Cyrano De Bergerac meets Cinderella. Over-worked, harried and terrified of being put back in foster care, 17 year old Katie (Lucy Hale) does her stepmother and step-siblings' bidding without complaining. Vocally gifted, Katie feels particularly upset when forced to lay down singing tracks so that her untalented stepsister, Bev Van Ravensway, can hopefully win a recording contract from Massive Records - who's company President, Harvey Morgan, is scouting for new spectacular talent at a talent showcase for the Performing Arts Department at a prestigious private school.

IMDB rating: 7.6/10 (from 162 users)

CAST:

Lucy Hale...............Katie Gibbs
Missi Pyle..............Gail Van Ravensway
Megan Park..............Beverly Van Ravensway
Freddie Stroma..........Luke
Emily Pierce............Party girl
Jessalyn Wanlim.........Angela
Onira Tares.............Crazy Girl
Titus Makin Jr..........Mickey O'Malley
Lucy Davenport..........Ms Plumberg
Matthew Lintz...........Victor
Manu Narayan............Ravi / Tony Gupta
Dikran Tulaine..........Guy morgan
Andrew Kelly............Hunky Jock #1
Beth Gosnell............Talent Show Attendee
Adriana Leonard.........Dancer

Format                           : Matroska
File size                        : 745 MiB
Duration                         : 1h 28mn
Overall bit rate                 : 1 177 Kbps
Encoded date                     : UTC 2011-09-29 12:17:27
Writing application              : mkvmerge v4.9.1 ('Ich will') creado el Jul 11 2011 23:53:15
Writing library                  : libebml v1.2.1 + libmatroska v1.1.1

Video
ID                               : 1
Format                           : AVC
Format/Info                      : Advanced Video Codec
Format profile                   : Main@L3.0
Format settings, CABAC           : Yes
Format settings, ReFrames        : 4 frames
Muxing mode                      : Container profile=Unknown@3.0
Codec ID                         : V_MPEG4/ISO/AVC
Duration                         : 1h 28mn
Bit rate                         : 1 026 Kbps
Nominal bit rate                 : 1 040 Kbps
Width                            : 720 pixels
Height                           : 400 pixels
Display aspect ratio             : 16:9
Frame rate mode                  : Variable
Frame rate                       : 23.976 fps
Resolution                       : 8 bits
Colorimetry                      : 4:2:0
Scan type                        : Progressive
Bits/(Pixel*Frame)               : 0.149
Stream size                      : 648 MiB (87%)
Writing library                  : x264 core 112

Audio
ID                               : 2
Format                           : AC-3
Format/Info                      : Audio Coding 3
Codec ID                         : A_AC3
Duration                         : 1h 28mn
Bit rate mode                    : Constant
Bit rate                         : 128 Kbps
Channel(s)                       : 2 channels
Channel positions                : Front: L R
Sampling rate                    : 48.0 KHz
Stream size                      : 81.0 MiB (11%)

Text (subtitles)
ID                               : 3
Format                           : VobSub
Codec ID                         : S_VOBSUB
Codec ID/Info                    : The same subtitle format used on DVDs
Language                         : Romanian
Language                         : English
Language                         : Spanish